<mxfile host="drawio-plugin" modified="2024-01-29T13:25:18.599Z" agent="5.0 (Windows NT 10.0; Win64; x64) AppleWebKit/537.36 (KHTML, like Gecko) Chrome/111.0.0.0 Safari/537.36" etag="B1UvTz6wz3S2mYlklf4m" version="20.5.3" type="embed" pages="2"><diagram name="TemperatureDashApp" id="vDy8FKKkWsojjG1RDzf5"><mxGraphModel dx="1305" dy="695" grid="1" gridSize="10" guides="1" tooltips="1" connect="1" arrows="1" fold="1" page="1" pageScale="1" pageWidth="1654" pageHeight="1169" math="0" shadow="0"><root><mxCell id="0"/><mxCell id="1" parent="0"/><mxCell id="v-pCWJpPtzPc-9zOECgq-1" value="callbacks" style="swimlane;fontStyle=1;align=center;verticalAlign=top;childLayout=stackLayout;horizontal=1;startSize=26;horizontalStack=0;resizeParent=1;resizeParentMax=0;resizeLast=0;collapsible=1;marginBottom=0;whiteSpace=wrap;html=1;" parent="1" vertex="1"><mxGeometry x="460" y="490" width="380" height="86" as="geometry"/></mxCell><mxCell id="v-pCWJpPtzPc-9zOECgq-2" value="CreationTime: DateTime" style="text;strokeColor=none;fillColor=none;align=left;verticalAlign=top;spacingLeft=4;spacingRight=4;overflow=hidden;rotatable=0;points=[[0,0.5],[1,0.5]];portConstraint=eastwest;whiteSpace=wrap;html=1;" parent="v-pCWJpPtzPc-9zOECgq-1" vertex="1"><mxGeometry y="26" width="380" height="26" as="geometry"/></mxCell><mxCell id="v-pCWJpPtzPc-9zOECgq-3" value="" style="line;strokeWidth=1;fillColor=none;align=left;verticalAlign=middle;spacingTop=-1;spacingLeft=3;spacingRight=3;rotatable=0;labelPosition=right;points=[];portConstraint=eastwest;strokeColor=inherit;" parent="v-pCWJpPtzPc-9zOECgq-1" vertex="1"><mxGeometry y="52" width="380" height="8" as="geometry"/></mxCell><mxCell id="v-pCWJpPtzPc-9zOECgq-4" value="+ add_timeseries_callback(app)" style="text;strokeColor=none;fillColor=none;align=left;verticalAlign=top;spacingLeft=4;spacingRight=4;overflow=hidden;rotatable=0;points=[[0,0.5],[1,0.5]];portConstraint=eastwest;whiteSpace=wrap;html=1;" parent="v-pCWJpPtzPc-9zOECgq-1" vertex="1"><mxGeometry y="60" width="380" height="26" as="geometry"/></mxCell><mxCell id="cLcs_M3EtossmrVFGKt8-1" value="app.py" style="swimlane;fontStyle=1;align=center;verticalAlign=top;childLayout=stackLayout;horizontal=1;startSize=26;horizontalStack=0;resizeParent=1;resizeParentMax=0;resizeLast=0;collapsible=1;marginBottom=0;whiteSpace=wrap;html=1;" parent="1" vertex="1"><mxGeometry x="610" y="80" width="160" height="86" as="geometry"/></mxCell><mxCell id="cLcs_M3EtossmrVFGKt8-2" value="+ field: type" style="text;strokeColor=none;fillColor=none;align=left;verticalAlign=top;spacingLeft=4;spacingRight=4;overflow=hidden;rotatable=0;points=[[0,0.5],[1,0.5]];portConstraint=eastwest;whiteSpace=wrap;html=1;" parent="cLcs_M3EtossmrVFGKt8-1" vertex="1"><mxGeometry y="26" width="160" height="26" as="geometry"/></mxCell><mxCell id="cLcs_M3EtossmrVFGKt8-3" value="" style="line;strokeWidth=1;fillColor=none;align=left;verticalAlign=middle;spacingTop=-1;spacingLeft=3;spacingRight=3;rotatable=0;labelPosition=right;points=[];portConstraint=eastwest;strokeColor=inherit;" parent="cLcs_M3EtossmrVFGKt8-1" vertex="1"><mxGeometry y="52" width="160" height="8" as="geometry"/></mxCell><mxCell id="cLcs_M3EtossmrVFGKt8-4" value="+ method(type): type" style="text;strokeColor=none;fillColor=none;align=left;verticalAlign=top;spacingLeft=4;spacingRight=4;overflow=hidden;rotatable=0;points=[[0,0.5],[1,0.5]];portConstraint=eastwest;whiteSpace=wrap;html=1;" parent="cLcs_M3EtossmrVFGKt8-1" vertex="1"><mxGeometry y="60" width="160" height="26" as="geometry"/></mxCell><mxCell id="eLz21N7htwY3KEThcsI1-1" value="TemperatureData" style="swimlane;fontStyle=1;align=center;verticalAlign=top;childLayout=stackLayout;horizontal=1;startSize=26;horizontalStack=0;resizeParent=1;resizeParentMax=0;resizeLast=0;collapsible=1;marginBottom=0;whiteSpace=wrap;html=1;" parent="1" vertex="1"><mxGeometry x="50" y="290" width="380" height="242" as="geometry"/></mxCell><mxCell id="eLz21N7htwY3KEThcsI1-2" value="CreationTime: DateTime" style="text;strokeColor=none;fillColor=none;align=left;verticalAlign=top;spacingLeft=4;spacingRight=4;overflow=hidden;rotatable=0;points=[[0,0.5],[1,0.5]];portConstraint=eastwest;whiteSpace=wrap;html=1;" parent="eLz21N7htwY3KEThcsI1-1" vertex="1"><mxGeometry y="26" width="380" height="26" as="geometry"/></mxCell><mxCell id="eLz21N7htwY3KEThcsI1-3" value="CreationTime: DateTime" style="text;strokeColor=none;fillColor=none;align=left;verticalAlign=top;spacingLeft=4;spacingRight=4;overflow=hidden;rotatable=0;points=[[0,0.5],[1,0.5]];portConstraint=eastwest;whiteSpace=wrap;html=1;" parent="eLz21N7htwY3KEThcsI1-1" vertex="1"><mxGeometry y="52" width="380" height="26" as="geometry"/></mxCell><mxCell id="eLz21N7htwY3KEThcsI1-4" value="" style="line;strokeWidth=1;fillColor=none;align=left;verticalAlign=middle;spacingTop=-1;spacingLeft=3;spacingRight=3;rotatable=0;labelPosition=right;points=[];portConstraint=eastwest;strokeColor=inherit;" parent="eLz21N7htwY3KEThcsI1-1" vertex="1"><mxGeometry y="78" width="380" height="8" as="geometry"/></mxCell><mxCell id="eLz21N7htwY3KEThcsI1-5" value="+ load_data()" style="text;strokeColor=none;fillColor=none;align=left;verticalAlign=top;spacingLeft=4;spacingRight=4;overflow=hidden;rotatable=0;points=[[0,0.5],[1,0.5]];portConstraint=eastwest;whiteSpace=wrap;html=1;" parent="eLz21N7htwY3KEThcsI1-1" vertex="1"><mxGeometry y="86" width="380" height="26" as="geometry"/></mxCell><mxCell id="dyKbHNdvw5-MIPKxcRXz-6" value="+ process_timestamps()" style="text;strokeColor=none;fillColor=none;align=left;verticalAlign=top;spacingLeft=4;spacingRight=4;overflow=hidden;rotatable=0;points=[[0,0.5],[1,0.5]];portConstraint=eastwest;whiteSpace=wrap;html=1;" vertex="1" parent="eLz21N7htwY3KEThcsI1-1"><mxGeometry y="112" width="380" height="26" as="geometry"/></mxCell><mxCell id="dyKbHNdvw5-MIPKxcRXz-7" value="+ calculate_elapsed_seconds()" style="text;strokeColor=none;fillColor=none;align=left;verticalAlign=top;spacingLeft=4;spacingRight=4;overflow=hidden;rotatable=0;points=[[0,0.5],[1,0.5]];portConstraint=eastwest;whiteSpace=wrap;html=1;" vertex="1" parent="eLz21N7htwY3KEThcsI1-1"><mxGeometry y="138" width="380" height="26" as="geometry"/></mxCell><mxCell id="dyKbHNdvw5-MIPKxcRXz-8" value="+ interpolate_temperatures()" style="text;strokeColor=none;fillColor=none;align=left;verticalAlign=top;spacingLeft=4;spacingRight=4;overflow=hidden;rotatable=0;points=[[0,0.5],[1,0.5]];portConstraint=eastwest;whiteSpace=wrap;html=1;" vertex="1" parent="eLz21N7htwY3KEThcsI1-1"><mxGeometry y="164" width="380" height="26" as="geometry"/></mxCell><mxCell id="dyKbHNdvw5-MIPKxcRXz-9" value="+ calculate_gradients()" style="text;strokeColor=none;fillColor=none;align=left;verticalAlign=top;spacingLeft=4;spacingRight=4;overflow=hidden;rotatable=0;points=[[0,0.5],[1,0.5]];portConstraint=eastwest;whiteSpace=wrap;html=1;" vertex="1" parent="eLz21N7htwY3KEThcsI1-1"><mxGeometry y="190" width="380" height="26" as="geometry"/></mxCell><mxCell id="dyKbHNdvw5-MIPKxcRXz-10" value="+ smooth_data()" style="text;strokeColor=none;fillColor=none;align=left;verticalAlign=top;spacingLeft=4;spacingRight=4;overflow=hidden;rotatable=0;points=[[0,0.5],[1,0.5]];portConstraint=eastwest;whiteSpace=wrap;html=1;" vertex="1" parent="eLz21N7htwY3KEThcsI1-1"><mxGeometry y="216" width="380" height="26" as="geometry"/></mxCell><mxCell id="2" value="components" style="swimlane;fontStyle=1;align=center;verticalAlign=top;childLayout=stackLayout;horizontal=1;startSize=26;horizontalStack=0;resizeParent=1;resizeParentMax=0;resizeLast=0;collapsible=1;marginBottom=0;whiteSpace=wrap;html=1;" parent="1" vertex="1"><mxGeometry x="447" y="240" width="380" height="112" as="geometry"/></mxCell><mxCell id="4" value="CreationTime: DateTime" style="text;strokeColor=none;fillColor=none;align=left;verticalAlign=top;spacingLeft=4;spacingRight=4;overflow=hidden;rotatable=0;points=[[0,0.5],[1,0.5]];portConstraint=eastwest;whiteSpace=wrap;html=1;" parent="2" vertex="1"><mxGeometry y="26" width="380" height="26" as="geometry"/></mxCell><mxCell id="5" value="" style="line;strokeWidth=1;fillColor=none;align=left;verticalAlign=middle;spacingTop=-1;spacingLeft=3;spacingRight=3;rotatable=0;labelPosition=right;points=[];portConstraint=eastwest;strokeColor=inherit;" parent="2" vertex="1"><mxGeometry y="52" width="380" height="8" as="geometry"/></mxCell><mxCell id="6" value="+ get_dashboard(temperature_cases: np.ndarray)" style="text;strokeColor=none;fillColor=none;align=left;verticalAlign=top;spacingLeft=4;spacingRight=4;overflow=hidden;rotatable=0;points=[[0,0.5],[1,0.5]];portConstraint=eastwest;whiteSpace=wrap;html=1;" parent="2" vertex="1"><mxGeometry y="60" width="380" height="26" as="geometry"/></mxCell><mxCell id="dyKbHNdvw5-MIPKxcRXz-11" value="+ get_timeslider()" style="text;strokeColor=none;fillColor=none;align=left;verticalAlign=top;spacingLeft=4;spacingRight=4;overflow=hidden;rotatable=0;points=[[0,0.5],[1,0.5]];portConstraint=eastwest;whiteSpace=wrap;html=1;" vertex="1" parent="2"><mxGeometry y="86" width="380" height="26" as="geometry"/></mxCell><mxCell id="dyKbHNdvw5-MIPKxcRXz-12" value="layouts" style="swimlane;fontStyle=1;align=center;verticalAlign=top;childLayout=stackLayout;horizontal=1;startSize=26;horizontalStack=0;resizeParent=1;resizeParentMax=0;resizeLast=0;collapsible=1;marginBottom=0;whiteSpace=wrap;html=1;" vertex="1" parent="1"><mxGeometry x="450" y="380" width="380" height="86" as="geometry"/></mxCell><mxCell id="dyKbHNdvw5-MIPKxcRXz-13" value="CreationTime: DateTime" style="text;strokeColor=none;fillColor=none;align=left;verticalAlign=top;spacingLeft=4;spacingRight=4;overflow=hidden;rotatable=0;points=[[0,0.5],[1,0.5]];portConstraint=eastwest;whiteSpace=wrap;html=1;" vertex="1" parent="dyKbHNdvw5-MIPKxcRXz-12"><mxGeometry y="26" width="380" height="26" as="geometry"/></mxCell><mxCell id="dyKbHNdvw5-MIPKxcRXz-14" value="" style="line;strokeWidth=1;fillColor=none;align=left;verticalAlign=middle;spacingTop=-1;spacingLeft=3;spacingRight=3;rotatable=0;labelPosition=right;points=[];portConstraint=eastwest;strokeColor=inherit;" vertex="1" parent="dyKbHNdvw5-MIPKxcRXz-12"><mxGeometry y="52" width="380" height="8" as="geometry"/></mxCell><mxCell id="dyKbHNdvw5-MIPKxcRXz-15" value="+ update_layout(app, dashboard, timeslider)" style="text;strokeColor=none;fillColor=none;align=left;verticalAlign=top;spacingLeft=4;spacingRight=4;overflow=hidden;rotatable=0;points=[[0,0.5],[1,0.5]];portConstraint=eastwest;whiteSpace=wrap;html=1;" vertex="1" parent="dyKbHNdvw5-MIPKxcRXz-12"><mxGeometry y="60" width="380" height="26" as="geometry"/></mxCell></root></mxGraphModel></diagram><diagram id="BPcFVphtQov2hEcmEEEQ" name="Page-2"><mxGraphModel dx="1696" dy="904" grid="1" gridSize="10" guides="1" tooltips="1" connect="1" arrows="1" fold="1" page="1" pageScale="1" pageWidth="1169" pageHeight="827" math="0" shadow="0"><root><mxCell id="0"/><mxCell id="1" parent="0"/><mxCell id="aG4f4fCAPr0ArF0tEwW5-1" value="CutFileLoader&lt;br&gt;" style="swimlane;fontStyle=1;align=center;verticalAlign=top;childLayout=stackLayout;horizontal=1;startSize=26;horizontalStack=0;resizeParent=1;resizeParentMax=0;resizeLast=0;collapsible=1;marginBottom=0;whiteSpace=wrap;html=1;" parent="1" vertex="1"><mxGeometry x="60" y="106" width="380" height="112" as="geometry"/></mxCell><mxCell id="aG4f4fCAPr0ArF0tEwW5-2" value="CreationTime: DateTime" style="text;strokeColor=none;fillColor=none;align=left;verticalAlign=top;spacingLeft=4;spacingRight=4;overflow=hidden;rotatable=0;points=[[0,0.5],[1,0.5]];portConstraint=eastwest;whiteSpace=wrap;html=1;" parent="aG4f4fCAPr0ArF0tEwW5-1" vertex="1"><mxGeometry y="26" width="380" height="26" as="geometry"/></mxCell><mxCell id="aG4f4fCAPr0ArF0tEwW5-3" value="CreationTime: DateTime" style="text;strokeColor=none;fillColor=none;align=left;verticalAlign=top;spacingLeft=4;spacingRight=4;overflow=hidden;rotatable=0;points=[[0,0.5],[1,0.5]];portConstraint=eastwest;whiteSpace=wrap;html=1;" parent="aG4f4fCAPr0ArF0tEwW5-1" vertex="1"><mxGeometry y="52" width="380" height="26" as="geometry"/></mxCell><mxCell id="aG4f4fCAPr0ArF0tEwW5-4" value="" style="line;strokeWidth=1;fillColor=none;align=left;verticalAlign=middle;spacingTop=-1;spacingLeft=3;spacingRight=3;rotatable=0;labelPosition=right;points=[];portConstraint=eastwest;strokeColor=inherit;" parent="aG4f4fCAPr0ArF0tEwW5-1" vertex="1"><mxGeometry y="78" width="380" height="8" as="geometry"/></mxCell><mxCell id="aG4f4fCAPr0ArF0tEwW5-5" value="+ method(type): type" style="text;strokeColor=none;fillColor=none;align=left;verticalAlign=top;spacingLeft=4;spacingRight=4;overflow=hidden;rotatable=0;points=[[0,0.5],[1,0.5]];portConstraint=eastwest;whiteSpace=wrap;html=1;" parent="aG4f4fCAPr0ArF0tEwW5-1" vertex="1"><mxGeometry y="86" width="380" height="26" as="geometry"/></mxCell><mxCell id="aG4f4fCAPr0ArF0tEwW5-6" value="ExcelDataWrapper" style="swimlane;fontStyle=1;align=center;verticalAlign=top;childLayout=stackLayout;horizontal=1;startSize=26;horizontalStack=0;resizeParent=1;resizeParentMax=0;resizeLast=0;collapsible=1;marginBottom=0;whiteSpace=wrap;html=1;" parent="1" vertex="1"><mxGeometry x="610" y="80" width="160" height="86" as="geometry"/></mxCell><mxCell id="aG4f4fCAPr0ArF0tEwW5-7" value="+ field: type" style="text;strokeColor=none;fillColor=none;align=left;verticalAlign=top;spacingLeft=4;spacingRight=4;overflow=hidden;rotatable=0;points=[[0,0.5],[1,0.5]];portConstraint=eastwest;whiteSpace=wrap;html=1;" parent="aG4f4fCAPr0ArF0tEwW5-6" vertex="1"><mxGeometry y="26" width="160" height="26" as="geometry"/></mxCell><mxCell id="aG4f4fCAPr0ArF0tEwW5-8" value="" style="line;strokeWidth=1;fillColor=none;align=left;verticalAlign=middle;spacingTop=-1;spacingLeft=3;spacingRight=3;rotatable=0;labelPosition=right;points=[];portConstraint=eastwest;strokeColor=inherit;" parent="aG4f4fCAPr0ArF0tEwW5-6" vertex="1"><mxGeometry y="52" width="160" height="8" as="geometry"/></mxCell><mxCell id="aG4f4fCAPr0ArF0tEwW5-9" value="+ method(type): type" style="text;strokeColor=none;fillColor=none;align=left;verticalAlign=top;spacingLeft=4;spacingRight=4;overflow=hidden;rotatable=0;points=[[0,0.5],[1,0.5]];portConstraint=eastwest;whiteSpace=wrap;html=1;" parent="aG4f4fCAPr0ArF0tEwW5-6" vertex="1"><mxGeometry y="60" width="160" height="26" as="geometry"/></mxCell><mxCell id="aG4f4fCAPr0ArF0tEwW5-10" value="DataHandler" style="swimlane;fontStyle=1;align=center;verticalAlign=top;childLayout=stackLayout;horizontal=1;startSize=26;horizontalStack=0;resizeParent=1;resizeParentMax=0;resizeLast=0;collapsible=1;marginBottom=0;whiteSpace=wrap;html=1;" parent="1" vertex="1"><mxGeometry x="60" y="276" width="380" height="112" as="geometry"/></mxCell><mxCell id="aG4f4fCAPr0ArF0tEwW5-11" value="CreationTime: DateTime" style="text;strokeColor=none;fillColor=none;align=left;verticalAlign=top;spacingLeft=4;spacingRight=4;overflow=hidden;rotatable=0;points=[[0,0.5],[1,0.5]];portConstraint=eastwest;whiteSpace=wrap;html=1;" parent="aG4f4fCAPr0ArF0tEwW5-10" vertex="1"><mxGeometry y="26" width="380" height="26" as="geometry"/></mxCell><mxCell id="aG4f4fCAPr0ArF0tEwW5-12" value="CreationTime: DateTime" style="text;strokeColor=none;fillColor=none;align=left;verticalAlign=top;spacingLeft=4;spacingRight=4;overflow=hidden;rotatable=0;points=[[0,0.5],[1,0.5]];portConstraint=eastwest;whiteSpace=wrap;html=1;" parent="aG4f4fCAPr0ArF0tEwW5-10" vertex="1"><mxGeometry y="52" width="380" height="26" as="geometry"/></mxCell><mxCell id="aG4f4fCAPr0ArF0tEwW5-13" value="" style="line;strokeWidth=1;fillColor=none;align=left;verticalAlign=middle;spacingTop=-1;spacingLeft=3;spacingRight=3;rotatable=0;labelPosition=right;points=[];portConstraint=eastwest;strokeColor=inherit;" parent="aG4f4fCAPr0ArF0tEwW5-10" vertex="1"><mxGeometry y="78" width="380" height="8" as="geometry"/></mxCell><mxCell id="aG4f4fCAPr0ArF0tEwW5-14" value="+ method(type): type" style="text;strokeColor=none;fillColor=none;align=left;verticalAlign=top;spacingLeft=4;spacingRight=4;overflow=hidden;rotatable=0;points=[[0,0.5],[1,0.5]];portConstraint=eastwest;whiteSpace=wrap;html=1;" parent="aG4f4fCAPr0ArF0tEwW5-10" vertex="1"><mxGeometry y="86" width="380" height="26" as="geometry"/></mxCell></root></mxGraphModel></diagram></mxfile>